# Blender v2.83.3 OBJ File: ''
# www.blender.org
o Sphere_Sphere
v 0.351793 -0.582686 -2.276847
v 0.921001 -0.996241 -1.842015
v 0.134382 -1.251834 -1.842015
v 1.138410 0.500000 -2.276845
v 1.707621 0.913548 -1.842012
v 1.707621 0.086453 -1.842012
v -0.920993 -0.169140 -2.276845
v -1.138412 -0.838283 -1.842014
v -1.624578 -0.169141 -1.842008
v -0.920993 1.169140 -2.276845
v -1.624578 1.169142 -1.842008
v -1.138412 1.838283 -1.842014
v 0.351793 1.582687 -2.276846
v 0.134382 2.251834 -1.842015
v 0.921001 1.996242 -1.842014
v 2.411211 0.913550 -0.703589
v 2.545584 0.500000 0.000000
v 2.411211 0.086450 -0.703589
v 1.138426 -1.665397 -0.703592
v 0.786629 -1.920994 -0.000000
v 0.351796 -1.920991 -0.703592
v -1.707630 -1.251845 -0.703590
v -2.059425 -0.996252 -0.000000
v -2.193795 -0.582693 -0.703590
v -2.193795 1.582693 -0.703589
v -2.059425 1.996252 0.000000
v -1.707630 2.251845 -0.703589
v 0.351796 2.920991 -0.703592
v 0.786629 2.920994 0.000000
v 1.138426 2.665397 -0.703591
v 2.059425 -0.996252 -0.000000
v 2.193795 -0.582693 0.703590
v 1.707630 -1.251845 0.703589
v -0.786629 -1.920994 -0.000000
v -0.351796 -1.920991 0.703592
v -1.138426 -1.665397 0.703591
v -2.545584 0.500000 0.000000
v -2.411211 0.086450 0.703589
v -2.411211 0.913550 0.703589
v -0.786629 2.920994 0.000000
v -1.138426 2.665397 0.703592
v -0.351796 2.920991 0.703593
v 2.059425 1.996252 0.000000
v 1.707630 2.251845 0.703590
v 2.193795 1.582693 0.703590
v 1.624578 -0.169142 1.842008
v 0.920993 -0.169140 2.276845
v 1.138412 -0.838283 1.842014
v -0.134382 -1.251834 1.842015
v -0.351793 -0.582687 2.276847
v -0.921001 -0.996242 1.842014
v -1.707621 0.086452 1.842012
v -1.138410 0.500000 2.276845
v -1.707621 0.913547 1.842012
v -0.921001 1.996241 1.842015
v -0.351793 1.582686 2.276847
v -0.134382 2.251834 1.842015
v 1.138412 1.838282 1.842014
v 0.920993 1.169140 2.276845
v 1.624578 1.169141 1.842009
v 0.580657 2.287107 1.717290
v 1.276288 2.287111 1.287372
v 0.695621 0.500000 2.448696
v 0.214953 1.161569 2.448698
v 2.094042 1.161573 1.287364
v 1.879084 0.500000 1.717278
v -1.520209 1.604483 1.717289
v -1.305256 2.266063 1.287372
v -0.562767 0.908869 2.448698
v 0.017884 2.695985 1.287373
v -1.520209 -0.604484 1.717289
v -2.082980 -0.195611 1.287369
v -0.562767 0.091130 2.448698
v -2.082980 1.195611 1.287369
v 0.580657 -1.287108 1.717290
v 0.017884 -1.695986 1.287372
v 0.214953 -0.161570 2.448698
v -1.305256 -1.266064 1.287372
v 2.094042 -0.161573 1.287364
v 1.276288 -1.287111 1.287371
v 2.215842 1.604486 -0.591737
v 1.735175 2.266073 -0.591737
v 2.441859 0.908871 0.591735
v 1.143438 2.695995 0.591738
v -0.365702 2.948695 -0.591736
v -1.143438 2.695995 -0.591738
v 0.365702 2.948695 0.591738
v -1.735175 2.266073 0.591738
v -2.441859 0.908872 -0.591734
v -2.441859 0.091129 -0.591735
v -2.215842 1.604486 0.591738
v -2.215842 -0.604486 0.591737
v -1.143438 -1.695995 -0.591738
v -0.365702 -1.948695 -0.591738
v -1.735175 -1.266073 0.591738
v 0.365702 -1.948695 0.591737
v 1.735175 -1.266073 -0.591738
v 2.215842 -0.604486 -0.591738
v 1.143438 -1.695995 0.591738
v 2.441859 0.091128 0.591735
v -0.017884 2.695986 -1.287372
v 1.305256 2.266063 -1.287372
v -2.094042 1.161573 -1.287364
v -1.276288 2.287111 -1.287371
v -1.276288 -1.287110 -1.287372
v -2.094042 -0.161573 -1.287364
v 1.305256 -1.266063 -1.287372
v -0.017884 -1.695985 -1.287373
v 2.082980 1.195611 -1.287368
v 2.082980 -0.195611 -1.287369
v 0.562767 0.908870 -2.448697
v -0.214953 1.161570 -2.448697
v 1.520209 1.604484 -1.717288
v -0.580657 2.287108 -1.717289
v -0.695621 0.500000 -2.448696
v -1.879084 0.500000 -1.717278
v -0.214953 -0.161569 -2.448698
v -0.580657 -1.287107 -1.717290
v 0.562767 0.091131 -2.448698
v 1.520209 -0.604483 -1.717289
v 1.082695 -0.286614 -2.165412
v 0.669155 -1.559407 -1.338310
v 1.841985 -0.838264 -1.138424
v -0.413544 -0.772780 -2.165412
v -0.703561 -1.665375 -1.138424
v 0.000000 0.500000 -2.545584
v 2.165396 0.500000 -1.338305
v 1.082695 1.286615 -2.165412
v 1.841985 1.838265 -1.138423
v -1.751844 -0.772784 -1.338306
v -1.338289 0.500000 -2.165406
v -2.276834 0.500000 -1.138423
v -1.751844 1.772785 -1.338306
v -0.413544 1.772781 -2.165412
v -0.703561 2.665376 -1.138422
v 0.669155 2.559407 -1.338309
v 2.420998 -0.286618 -0.000000
v 2.420998 1.286618 0.000000
v 2.276834 0.500000 1.138424
v 0.000000 -2.045584 -0.000000
v 1.496258 -1.559420 -0.000000
v 0.703561 -1.665376 1.138423
v -2.420998 -0.286618 -0.000000
v -1.496258 -1.559420 -0.000000
v -1.841985 -0.838265 1.138423
v -1.496258 2.559420 0.000000
v -2.420998 1.286618 0.000000
v -1.841985 1.838264 1.138424
v 1.496258 2.559420 0.000000
v 0.000000 3.045584 0.000000
v 0.703561 2.665375 1.138425
v 1.751844 -0.772785 1.338306
v -0.669155 -1.559407 1.338309
v -2.165396 0.500000 1.338305
v -0.669155 2.559407 1.338310
v 1.751844 1.772784 1.338306
v 0.413544 -0.772781 2.165412
v 1.338289 0.500000 2.165406
v 0.000000 0.500000 2.545584
v -1.082695 -0.286615 2.165412
v -1.082695 1.286614 2.165412
v 0.413544 1.772780 2.165412
vt 0.055337 0.344308
vt 0.083519 0.433274
vt 0.023765 0.399674
vt 0.156437 0.296587
vt 0.225967 0.304231
vt 0.184620 0.385552
vt 0.866694 0.471110
vt 0.854074 0.389235
vt 0.919334 0.408047
vt 0.934001 0.542296
vt 0.941758 0.625388
vt 0.880835 0.574034
vt 0.163585 0.131406
vt 0.198916 0.055189
vt 0.233115 0.139049
vt 0.417855 0.969167
vt 0.410097 0.886075
vt 0.471020 0.937429
vt 0.630517 0.802984
vt 0.630517 0.700275
vt 0.675927 0.751630
vt 0.881787 0.230128
vt 0.922120 0.152897
vt 0.947048 0.248941
vt 0.888592 0.759834
vt 0.827668 0.811188
vt 0.827669 0.708480
vt 0.085174 0.935737
vt 0.112887 0.862210
vt 0.153220 0.939442
vt 0.524185 0.802983
vt 0.463262 0.751629
vt 0.524185 0.700275
vt 0.788813 0.137790
vt 0.761101 0.064263
vt 0.829147 0.060558
vt 0.941757 0.894280
vt 0.933999 0.977372
vt 0.880834 0.945634
vt 0.721336 0.708480
vt 0.721336 0.811189
vt 0.675927 0.759835
vt 0.246193 0.847103
vt 0.205860 0.769872
vt 0.271121 0.751059
vt 0.410096 0.617183
vt 0.417853 0.534091
vt 0.471018 0.565829
vt 0.477011 0.055189
vt 0.512342 0.131406
vt 0.442811 0.139049
vt 0.449959 0.304231
vt 0.519489 0.296587
vt 0.491306 0.385552
vt 0.592408 0.433274
vt 0.620590 0.344308
vt 0.652161 0.399674
vt 0.178147 0.610765
vt 0.190767 0.528890
vt 0.243408 0.591953
vt 0.118370 0.633615
vt 0.170415 0.695965
vt 0.634891 0.157361
vt 0.675927 0.208620
vt 0.639258 0.258295
vt 0.280186 0.664323
vt 0.292664 0.583374
vt 0.532776 0.441158
vt 0.563990 0.495898
vt 0.580181 0.291515
vt 0.061559 0.690037
vt 0.068047 0.604769
vt 0.422348 0.223970
vt 0.394484 0.311928
vt 0.539301 0.211114
vt 0.464032 0.448715
vt 0.513686 0.000000
vt 0.444942 0.007556
vt 0.573114 0.128202
vt 0.387417 0.148614
vt 0.362918 0.669477
vt 0.415482 0.700856
vt 0.609025 0.077039
vt 0.517957 0.614475
vt 0.525626 0.532323
vt 0.278135 0.902231
vt 0.213612 0.920831
vt 0.320063 0.740681
vt 0.145769 0.790923
vt 0.728766 0.622680
vt 0.773662 0.673453
vt 0.078493 0.787260
vt 0.027713 0.760170
vt 0.773661 0.846214
vt 0.728766 0.896988
vt 0.936371 0.810607
vt 0.988935 0.841986
vt 0.826226 0.979140
vt 0.833896 0.896988
vt 0.342331 0.290935
vt 0.369028 0.371962
vt 0.821696 0.209077
vt 0.754419 0.212740
vt 0.862140 0.006475
vt 0.889539 0.079169
vt 0.623088 0.614475
vt 0.590600 0.532322
vt 0.643067 0.565828
vt 0.578192 0.838009
vt 0.517958 0.888783
vt 0.578192 0.665248
vt 0.415483 0.802402
vt 0.708786 0.574033
vt 0.761254 0.540527
vt 0.186213 0.993525
vt 0.936371 0.709061
vt 0.833896 0.622680
vt 0.846342 0.304035
vt 0.954062 0.097769
vt 0.956113 0.335677
vt 0.995990 0.259319
vt 0.623088 0.888783
vt 0.737486 0.309963
vt 0.703640 0.239830
vt 0.333595 0.290935
vt 0.306899 0.371962
vt 0.281443 0.311929
vt 0.362919 0.833781
vt 0.525628 0.970935
vt 0.136626 0.211114
vt 0.102813 0.128202
vt 0.288510 0.148614
vt 0.253579 0.223970
vt 0.162241 0.000000
vt 0.230985 0.007556
vt 0.041036 0.157361
vt 0.066902 0.077039
vt 0.826227 0.540528
vt 0.988935 0.677682
vt 0.036668 0.258295
vt 0.000000 0.208620
vt 0.968591 0.416626
vt 0.794297 0.366385
vt 0.095746 0.291515
vt 0.143151 0.441158
vt 0.211895 0.448715
vt 0.743973 0.395231
vt 0.111937 0.495898
vt 0.117596 0.371256
vt 0.667506 0.849311
vt 0.643068 0.937430
vt 0.569594 0.917813
vt 0.590601 0.970935
vt 0.694136 0.333946
vt 0.803433 0.442495
vt 0.788813 0.281566
vt 0.003937 0.307345
vt 0.079266 0.208004
vt 0.249850 0.385795
vt 0.170467 0.495898
vt 0.196242 0.216574
vt 0.304269 0.232738
vt 0.903560 0.322541
vt 0.927565 0.478276
vt 1.000000 0.342442
vt 0.012339 0.113161
vt 0.815525 0.504102
vt 0.987731 0.601784
vt 0.886604 0.662153
vt 0.979409 0.759834
vt 0.871850 0.504102
vt 0.782260 0.593650
vt 0.131192 0.057063
vt 0.263446 0.071600
vt 0.265552 0.453284
vt 0.465250 0.849310
vt 0.364124 0.909680
vt 0.372444 0.751629
vt 0.304352 0.824362
vt 0.324073 0.890190
vt 0.726714 0.146903
vt 0.667506 0.653948
vt 0.581133 0.751629
vt 0.569593 0.585445
vt 0.980279 0.175638
vt 0.856145 0.139855
vt 0.919334 0.031641
vt 0.770721 0.759834
vt 0.886604 0.857515
vt 0.782259 0.926018
vt 0.318465 0.104690
vt 0.180219 0.860145
vt 0.337963 0.190000
vt 0.050787 0.853097
vt 0.112887 0.718434
vt 0.031879 0.910935
vt 0.127506 1.000000
vt 0.071756 0.987293
vt 0.465249 0.653948
vt 0.707806 0.089065
vt 0.803433 0.000000
vt 0.747683 0.012707
vt 0.412481 0.071600
vt 0.357462 0.104690
vt 0.371658 0.232738
vt 0.337963 0.190000
vt 1.000000 0.109810
vt 0.426077 0.385795
vt 0.410375 0.453284
vt 0.987730 0.917885
vt 0.684348 0.857516
vt 0.018209 0.666054
vt 0.684348 0.662153
vt 0.227633 0.677459
vt 0.324073 0.657558
vt 0.243407 0.968359
vt 0.480003 0.495898
vt 0.544735 0.057063
vt 0.663588 0.113161
vt 0.596661 0.208004
vt 0.364122 0.593579
vt 0.479684 0.216574
vt 0.558331 0.371256
vt 0.505459 0.495898
vt 0.127506 0.557505
vt 0.671990 0.307346
vt 0.708785 0.945635
vt 0.761252 0.979140
vt 0.251639 0.521724
vt 0.139599 0.495898
vt 0.080668 0.522894
vt 0.023207 0.579961
vt 0.573695 0.000821
vt 0.000000 0.833697
vt 0.675927 0.166303
vt 0.102232 0.000821
vt 0.756594 0.477106
vt 0.699134 0.420039
vn 0.1411 -0.4341 -0.8897
vn 0.3525 -0.5877 -0.7282
vn 0.0603 -0.6827 -0.7282
vn 0.4565 0.0000 -0.8897
vn 0.6679 0.1536 -0.7282
vn 0.6679 -0.1536 -0.7282
vn -0.3693 -0.2683 -0.8897
vn -0.4501 -0.5169 -0.7282
vn -0.6306 -0.2683 -0.7282
vn -0.3693 0.2683 -0.8897
vn -0.6306 0.2683 -0.7282
vn -0.4501 0.5169 -0.7282
vn 0.1411 0.4341 -0.8897
vn 0.0603 0.6827 -0.7282
vn 0.3525 0.5877 -0.7282
vn 0.9500 0.1536 -0.2717
vn 0.9999 0.0000 -0.0104
vn 0.9500 -0.1536 -0.2717
vn 0.4397 -0.8561 -0.2717
vn 0.3090 -0.9510 -0.0104
vn 0.1475 -0.9510 -0.2717
vn -0.6783 -0.6827 -0.2717
vn -0.8090 -0.5878 -0.0104
vn -0.8589 -0.4341 -0.2717
vn -0.8589 0.4341 -0.2717
vn -0.8090 0.5878 -0.0104
vn -0.6783 0.6827 -0.2717
vn 0.1475 0.9510 -0.2717
vn 0.3090 0.9510 -0.0104
vn 0.4397 0.8561 -0.2717
vn 0.8090 -0.5878 0.0104
vn 0.8589 -0.4341 0.2717
vn 0.6783 -0.6827 0.2717
vn -0.3090 -0.9510 0.0104
vn -0.1475 -0.9510 0.2717
vn -0.4397 -0.8561 0.2717
vn -0.9999 -0.0000 0.0104
vn -0.9500 -0.1536 0.2717
vn -0.9500 0.1536 0.2717
vn -0.3090 0.9510 0.0104
vn -0.4397 0.8561 0.2717
vn -0.1475 0.9510 0.2717
vn 0.8090 0.5878 0.0104
vn 0.6783 0.6827 0.2717
vn 0.8589 0.4341 0.2717
vn 0.6306 -0.2683 0.7282
vn 0.3693 -0.2683 0.8897
vn 0.4501 -0.5169 0.7282
vn -0.0603 -0.6827 0.7282
vn -0.1411 -0.4341 0.8897
vn -0.3525 -0.5877 0.7282
vn -0.6679 -0.1536 0.7282
vn -0.4565 0.0000 0.8897
vn -0.6679 0.1536 0.7282
vn -0.3525 0.5877 0.7282
vn -0.1411 0.4341 0.8897
vn -0.0603 0.6827 0.7282
vn 0.4501 0.5169 0.7282
vn 0.3693 0.2683 0.8897
vn 0.6306 0.2683 0.7282
vn 0.2285 0.7034 0.6731
vn 0.4998 0.7034 0.5054
vn 0.2713 -0.0000 0.9625
vn 0.0838 0.2580 0.9625
vn 0.8234 0.2580 0.5054
vn 0.7396 -0.0000 0.6731
vn -0.5983 0.4347 0.6731
vn -0.5145 0.6927 0.5054
vn -0.2195 0.1595 0.9625
vn 0.0091 0.8628 0.5054
vn -0.5983 -0.4347 0.6731
vn -0.8178 -0.2752 0.5054
vn -0.2195 -0.1595 0.9625
vn -0.8178 0.2752 0.5054
vn 0.2285 -0.7034 0.6731
vn 0.0091 -0.8628 0.5054
vn 0.0838 -0.2580 0.9625
vn -0.5145 -0.6927 0.5054
vn 0.8234 -0.2580 0.5054
vn 0.4998 -0.7034 0.5054
vn 0.8696 0.4347 -0.2341
vn 0.6822 0.6927 -0.2341
vn 0.9590 0.1595 0.2341
vn 0.4480 0.8628 0.2341
vn -0.1447 0.9614 -0.2341
vn -0.4480 0.8628 -0.2341
vn 0.1447 0.9614 0.2341
vn -0.6822 0.6927 0.2341
vn -0.9590 0.1595 -0.2341
vn -0.9590 -0.1595 -0.2341
vn -0.8696 0.4347 0.2341
vn -0.8696 -0.4347 0.2341
vn -0.4480 -0.8628 -0.2341
vn -0.1447 -0.9614 -0.2341
vn -0.6822 -0.6927 0.2341
vn 0.1447 -0.9614 0.2341
vn 0.6822 -0.6927 -0.2341
vn 0.8696 -0.4347 -0.2341
vn 0.4480 -0.8628 0.2341
vn 0.9590 -0.1595 0.2341
vn -0.0091 0.8628 -0.5054
vn 0.5145 0.6927 -0.5054
vn -0.8234 0.2580 -0.5054
vn -0.4998 0.7034 -0.5054
vn -0.4998 -0.7034 -0.5054
vn -0.8234 -0.2580 -0.5054
vn 0.5145 -0.6927 -0.5054
vn -0.0091 -0.8628 -0.5054
vn 0.8178 0.2752 -0.5054
vn 0.8178 -0.2752 -0.5054
vn 0.2195 0.1595 -0.9625
vn -0.0838 0.2580 -0.9625
vn 0.5983 0.4347 -0.6731
vn -0.2285 0.7034 -0.6731
vn -0.2713 0.0000 -0.9625
vn -0.7396 -0.0000 -0.6731
vn -0.0838 -0.2580 -0.9625
vn -0.2285 -0.7034 -0.6731
vn 0.2195 -0.1595 -0.9625
vn 0.5983 -0.4347 -0.6731
vn 0.4253 -0.3090 -0.8507
vn 0.2629 -0.8090 -0.5257
vn 0.7236 -0.5257 -0.4472
vn -0.1625 -0.5000 -0.8507
vn -0.2764 -0.8506 -0.4472
vn -0.0000 0.0000 -1.0000
vn 0.8506 0.0000 -0.5257
vn 0.4253 0.3090 -0.8507
vn 0.7236 0.5257 -0.4472
vn -0.6882 -0.5000 -0.5257
vn -0.5257 0.0000 -0.8507
vn -0.8944 0.0000 -0.4472
vn -0.6882 0.5000 -0.5257
vn -0.1625 0.5000 -0.8507
vn -0.2764 0.8506 -0.4472
vn 0.2629 0.8090 -0.5257
vn 0.9511 -0.3090 -0.0000
vn 0.9511 0.3090 0.0000
vn 0.8944 -0.0000 0.4472
vn 0.0000 -1.0000 -0.0000
vn 0.5878 -0.8090 0.0000
vn 0.2764 -0.8506 0.4472
vn -0.9511 -0.3090 0.0000
vn -0.5878 -0.8090 -0.0000
vn -0.7236 -0.5257 0.4472
vn -0.5878 0.8090 -0.0000
vn -0.9511 0.3090 0.0000
vn -0.7236 0.5257 0.4472
vn 0.5878 0.8090 0.0000
vn 0.0000 1.0000 -0.0000
vn 0.2764 0.8506 0.4472
vn 0.6882 -0.5000 0.5257
vn -0.2629 -0.8090 0.5257
vn -0.8506 -0.0000 0.5257
vn -0.2629 0.8090 0.5257
vn 0.6882 0.5000 0.5257
vn 0.1625 -0.5000 0.8507
vn 0.5257 -0.0000 0.8507
vn 0.0000 -0.0000 1.0000
vn -0.4253 -0.3090 0.8507
vn -0.4253 0.3090 0.8507
vn 0.1625 0.5000 0.8507
s 1
f 1/1/1 2/2/2 3/3/3
f 4/4/4 5/5/5 6/6/6
f 7/7/7 8/8/8 9/9/9
f 10/10/10 11/11/11 12/12/12
f 13/13/13 14/14/14 15/15/15
f 16/16/16 17/17/17 18/18/18
f 19/19/19 20/20/20 21/21/21
f 22/22/22 23/23/23 24/24/24
f 25/25/25 26/26/26 27/27/27
f 28/28/28 29/29/29 30/30/30
f 31/31/31 32/32/32 33/33/33
f 34/34/34 35/35/35 36/36/36
f 37/37/37 38/38/38 39/39/39
f 40/40/40 41/41/41 42/42/42
f 43/43/43 44/44/44 45/45/45
f 46/46/46 47/47/47 48/48/48
f 49/49/49 50/50/50 51/51/51
f 52/52/52 53/53/53 54/54/54
f 55/55/55 56/56/56 57/57/57
f 58/58/58 59/59/59 60/60/60
f 61/61/61 58/58/58 62/62/62
f 63/63/63 59/64/59 64/65/64
f 65/66/65 60/60/60 66/67/66
f 67/68/67 55/55/55 68/69/68
f 64/65/64 56/56/56 69/70/69
f 70/71/70 57/72/57 61/61/61
f 71/73/71 52/52/52 72/74/72
f 69/70/69 53/53/53 73/75/73
f 74/76/74 54/54/54 67/68/67
f 75/77/75 49/49/49 76/78/76
f 73/75/73 50/50/50 77/79/77
f 78/80/78 51/51/51 71/73/71
f 66/81/66 46/46/46 79/82/79
f 77/79/77 47/83/47 63/63/63
f 80/84/80 48/48/48 75/85/75
f 81/86/81 82/87/82 43/43/43
f 65/66/65 83/88/83 45/45/45
f 84/89/84 62/62/62 44/44/44
f 85/90/85 86/91/86 40/40/40
f 70/71/70 87/92/87 42/93/42
f 88/94/88 68/95/68 41/41/41
f 89/96/89 90/97/90 37/37/37
f 74/98/74 91/99/91 39/39/39
f 92/100/92 72/74/72 38/101/38
f 93/102/93 94/103/94 34/34/34
f 78/104/78 95/105/95 36/36/36
f 96/106/96 76/107/76 35/108/35
f 97/109/97 98/110/98 31/31/31
f 80/84/80 99/111/99 33/33/33
f 100/112/100 79/82/79 32/32/32
f 85/90/85 28/113/28 101/114/101
f 84/89/84 29/29/29 87/92/87
f 102/115/102 30/30/30 82/87/82
f 89/96/89 25/25/25 103/116/103
f 88/94/88 26/26/26 91/99/91
f 104/117/104 27/27/27 86/91/86
f 93/102/93 22/22/22 105/118/105
f 92/119/92 23/23/23 95/105/95
f 106/120/106 24/24/24 90/121/90
f 97/109/97 19/19/19 107/122/107
f 96/106/96 20/20/20 99/111/99
f 108/123/108 21/124/21 94/103/94
f 81/125/81 16/126/16 109/127/109
f 100/112/100 17/17/17 83/128/83
f 110/129/110 18/18/18 98/110/98
f 111/130/111 112/131/112 13/13/13
f 102/132/102 113/133/113 15/15/15
f 114/134/114 101/135/101 14/14/14
f 112/131/112 115/136/115 10/137/10
f 104/117/104 114/138/114 12/12/12
f 116/139/116 103/116/103 11/11/11
f 115/136/115 117/140/117 7/141/7
f 106/120/106 116/142/116 9/9/9
f 118/143/118 105/118/105 8/8/8
f 111/130/111 4/4/4 119/144/119
f 109/127/109 5/5/5 113/133/113
f 120/145/120 6/6/6 110/146/110
f 117/140/117 119/144/119 1/1/1
f 108/123/108 118/143/118 3/147/3
f 120/145/120 107/148/107 2/2/2
f 121/149/121 120/145/120 2/2/2
f 122/150/122 2/151/2 107/122/107
f 123/152/123 107/122/107 120/153/120
f 122/154/122 108/123/108 3/147/3
f 124/155/124 3/147/3 118/143/118
f 125/156/125 118/143/118 108/123/108
f 124/157/124 117/140/117 1/1/1
f 121/149/121 1/1/1 119/144/119
f 126/158/126 119/144/119 117/140/117
f 121/149/121 6/6/6 120/145/120
f 127/159/127 110/146/110 6/6/6
f 123/160/123 120/145/120 110/146/110
f 127/159/127 5/5/5 109/127/109
f 128/161/128 113/133/113 5/5/5
f 129/162/129 109/127/109 113/133/113
f 128/161/128 4/4/4 111/130/111
f 121/149/121 119/144/119 4/4/4
f 126/158/126 111/130/111 119/144/119
f 124/155/124 118/143/118 8/8/8
f 130/163/130 8/8/8 105/118/105
f 125/156/125 105/118/105 118/143/118
f 130/163/130 106/120/106 9/9/9
f 131/164/131 9/9/9 116/142/116
f 132/165/132 116/142/116 106/120/106
f 131/166/131 115/136/115 7/141/7
f 124/155/124 7/7/7 117/167/117
f 126/158/126 117/140/117 115/136/115
f 131/168/131 116/139/116 11/11/11
f 133/169/133 11/11/11 103/116/103
f 132/170/132 103/116/103 116/139/116
f 133/169/133 104/117/104 12/12/12
f 134/171/134 12/12/12 114/138/114
f 135/172/135 114/138/114 104/117/104
f 134/173/134 112/131/112 10/137/10
f 131/166/131 10/137/10 115/136/115
f 126/158/126 115/136/115 112/131/112
f 134/173/134 114/134/114 14/14/14
f 136/174/136 14/14/14 101/135/101
f 135/172/135 101/114/101 114/138/114
f 136/174/136 102/132/102 15/15/15
f 128/161/128 15/15/15 113/133/113
f 129/162/129 113/133/113 102/132/102
f 128/161/128 111/130/111 13/13/13
f 134/173/134 13/13/13 112/131/112
f 126/158/126 112/131/112 111/130/111
f 127/159/127 18/175/18 110/146/110
f 137/176/137 98/110/98 18/18/18
f 123/152/123 110/129/110 98/110/98
f 137/176/137 17/17/17 100/112/100
f 138/177/138 83/128/83 17/17/17
f 139/178/139 100/112/100 83/128/83
f 138/179/138 16/180/16 81/86/81
f 127/159/127 109/127/109 16/126/16
f 129/162/129 81/125/81 109/127/109
f 122/154/122 21/124/21 108/123/108
f 140/181/140 94/103/94 21/124/21
f 125/156/125 108/123/108 94/103/94
f 140/182/140 20/20/20 96/106/96
f 141/183/141 99/111/99 20/20/20
f 142/184/142 96/106/96 99/111/99
f 141/183/141 19/19/19 97/109/97
f 122/150/122 107/122/107 19/19/19
f 123/152/123 97/109/97 107/122/107
f 130/163/130 24/24/24 106/120/106
f 143/185/143 90/121/90 24/24/24
f 132/165/132 106/120/106 90/121/90
f 143/185/143 23/23/23 92/119/92
f 144/186/144 95/105/95 23/23/23
f 145/187/145 92/119/92 95/105/95
f 144/186/144 22/22/22 93/102/93
f 130/163/130 105/118/105 22/22/22
f 125/156/125 93/102/93 105/118/105
f 133/169/133 27/27/27 104/117/104
f 146/188/146 86/91/86 27/27/27
f 135/172/135 104/117/104 86/91/86
f 146/188/146 26/26/26 88/94/88
f 147/189/147 91/99/91 26/26/26
f 148/190/148 88/94/88 91/99/91
f 147/189/147 25/25/25 89/96/89
f 133/169/133 103/116/103 25/25/25
f 132/170/132 89/96/89 103/116/103
f 136/174/136 30/191/30 102/132/102
f 149/192/149 82/87/82 30/30/30
f 129/162/129 102/132/102 82/193/82
f 149/192/149 29/29/29 84/89/84
f 150/194/150 87/92/87 29/29/29
f 151/195/151 84/89/84 87/92/87
f 150/194/150 28/28/28 85/196/85
f 136/197/136 101/198/101 28/28/28
f 135/172/135 85/90/85 101/114/101
f 137/176/137 100/112/100 32/32/32
f 152/199/152 32/32/32 79/82/79
f 139/178/139 79/82/79 100/112/100
f 152/199/152 80/84/80 33/33/33
f 141/183/141 33/33/33 99/111/99
f 142/184/142 99/111/99 80/84/80
f 141/183/141 97/109/97 31/31/31
f 137/176/137 31/31/31 98/110/98
f 123/152/123 98/110/98 97/109/97
f 140/181/140 96/200/96 35/35/35
f 153/201/153 35/35/35 76/202/76
f 142/184/142 76/107/76 96/106/96
f 153/203/153 78/80/78 36/204/36
f 144/186/144 36/36/36 95/105/95
f 145/205/145 95/206/95 78/80/78
f 144/186/144 93/102/93 34/34/34
f 140/181/140 34/34/34 94/103/94
f 125/156/125 94/103/94 93/102/93
f 143/185/143 92/119/92 38/207/38
f 154/208/154 38/101/38 72/74/72
f 145/205/145 72/74/72 92/100/92
f 154/208/154 74/76/74 39/209/39
f 147/189/147 39/39/39 91/99/91
f 148/190/148 91/99/91 74/98/74
f 147/189/147 89/96/89 37/37/37
f 143/210/143 37/37/37 90/97/90
f 132/170/132 90/97/90 89/96/89
f 146/188/146 88/94/88 41/41/41
f 155/211/155 41/41/41 68/95/68
f 148/190/148 68/95/68 88/94/88
f 155/212/155 70/71/70 42/93/42
f 150/194/150 42/93/42 87/92/87
f 151/195/151 87/92/87 70/71/70
f 150/213/150 85/90/85 40/40/40
f 146/188/146 40/40/40 86/91/86
f 135/172/135 86/91/86 85/90/85
f 149/192/149 84/89/84 44/44/44
f 156/214/156 44/44/44 62/62/62
f 151/195/151 62/62/62 84/89/84
f 156/214/156 65/66/65 45/45/45
f 138/179/138 45/45/45 83/88/83
f 139/215/139 83/88/83 65/66/65
f 138/179/138 81/86/81 43/43/43
f 149/192/149 43/43/43 82/87/82
f 129/216/129 82/87/82 81/86/81
f 152/199/152 48/48/48 80/84/80
f 157/217/157 75/85/75 48/48/48
f 142/184/142 80/84/80 75/85/75
f 157/218/157 47/83/47 77/79/77
f 158/219/158 63/63/63 47/83/47
f 159/220/159 77/79/77 63/63/63
f 158/221/158 46/46/46 66/81/66
f 152/199/152 79/82/79 46/46/46
f 139/178/139 66/81/66 79/82/79
f 153/203/153 51/51/51 78/80/78
f 160/222/160 71/73/71 51/51/51
f 145/205/145 78/80/78 71/73/71
f 160/222/160 50/50/50 73/75/73
f 157/218/157 77/79/77 50/50/50
f 159/220/159 73/75/73 77/79/77
f 157/218/157 49/49/49 75/77/75
f 153/203/153 76/78/76 49/49/49
f 142/184/142 75/85/75 76/107/76
f 154/208/154 54/54/54 74/76/74
f 161/223/161 67/68/67 54/54/54
f 148/224/148 74/76/74 67/68/67
f 161/223/161 53/53/53 69/70/69
f 160/222/160 73/75/73 53/53/53
f 159/220/159 69/70/69 73/75/73
f 160/222/160 52/52/52 71/73/71
f 154/208/154 72/74/72 52/52/52
f 145/205/145 71/73/71 72/74/72
f 155/212/155 57/72/57 70/71/70
f 162/225/162 61/61/61 57/72/57
f 151/195/151 70/71/70 61/61/61
f 162/226/162 56/56/56 64/65/64
f 161/223/161 69/70/69 56/56/56
f 159/220/159 64/65/64 69/70/69
f 161/223/161 55/55/55 67/68/67
f 155/211/155 68/95/68 55/227/55
f 148/190/148 67/228/67 68/95/68
f 156/214/156 60/60/60 65/66/65
f 158/229/158 66/67/66 60/60/60
f 139/215/139 65/66/65 66/67/66
f 158/219/158 59/64/59 63/63/63
f 162/225/162 64/230/64 59/59/59
f 159/220/159 63/63/63 64/65/64
f 162/225/162 58/58/58 61/61/61
f 156/214/156 62/62/62 58/58/58
f 151/195/151 61/61/61 62/62/62
f 162/225/162 59/59/59 58/58/58
f 158/229/158 60/60/60 59/59/59
f 156/214/156 58/58/58 60/60/60
f 161/223/161 56/56/56 55/55/55
f 162/225/162 57/72/57 56/231/56
f 155/212/155 55/232/55 57/72/57
f 160/222/160 53/53/53 52/52/52
f 161/223/161 54/54/54 53/53/53
f 154/208/154 52/52/52 54/54/54
f 157/218/157 50/50/50 49/49/49
f 160/222/160 51/51/51 50/50/50
f 153/203/153 49/49/49 51/51/51
f 158/221/158 47/47/47 46/46/46
f 157/218/157 48/233/48 47/83/47
f 152/199/152 46/46/46 48/48/48
f 138/179/138 43/43/43 45/45/45
f 156/214/156 45/45/45 44/44/44
f 149/192/149 44/44/44 43/43/43
f 150/194/150 40/234/40 42/93/42
f 155/211/155 42/42/42 41/41/41
f 146/188/146 41/41/41 40/40/40
f 147/189/147 37/37/37 39/39/39
f 154/208/154 39/209/39 38/101/38
f 143/210/143 38/38/38 37/37/37
f 144/186/144 34/34/34 36/36/36
f 153/201/153 36/36/36 35/35/35
f 140/181/140 35/35/35 34/34/34
f 141/183/141 31/31/31 33/33/33
f 152/199/152 33/33/33 32/32/32
f 137/176/137 32/32/32 31/31/31
f 150/194/150 29/29/29 28/28/28
f 149/192/149 30/30/30 29/29/29
f 136/197/136 28/28/28 30/30/30
f 147/189/147 26/26/26 25/25/25
f 146/188/146 27/27/27 26/26/26
f 133/169/133 25/25/25 27/27/27
f 144/186/144 23/23/23 22/22/22
f 143/185/143 24/24/24 23/23/23
f 130/163/130 22/22/22 24/24/24
f 141/183/141 20/20/20 19/19/19
f 140/181/140 21/124/21 20/235/20
f 122/150/122 19/19/19 21/21/21
f 138/177/138 17/17/17 16/16/16
f 137/176/137 18/18/18 17/17/17
f 127/159/127 16/126/16 18/175/18
f 128/161/128 13/13/13 15/15/15
f 136/174/136 15/15/15 14/14/14
f 134/173/134 14/14/14 13/13/13
f 134/173/134 10/137/10 12/236/12
f 133/169/133 12/12/12 11/11/11
f 131/168/131 11/11/11 10/10/10
f 131/164/131 7/7/7 9/9/9
f 130/163/130 9/9/9 8/8/8
f 124/155/124 8/8/8 7/7/7
f 128/161/128 5/5/5 4/4/4
f 127/159/127 6/6/6 5/5/5
f 121/149/121 4/4/4 6/6/6
f 124/155/124 1/237/1 3/147/3
f 122/154/122 3/147/3 2/238/2
f 121/149/121 2/2/2 1/1/1
