# Blender v2.83.0 OBJ File: ''
# www.blender.org
o cube01_Cube.001
v -1.676219 1.263424 -0.805700
v -1.143877 1.263424 0.805701
v -0.604348 1.263424 -0.266171
v -2.215748 0.063424 0.266171
v -1.143877 0.063424 0.805700
v -2.215748 1.263424 0.266171
v -1.676219 0.063424 -0.805701
v -0.604348 0.063424 -0.266171
vt 0.000000 0.000000
vt 1.000000 0.000000
vt 1.000000 1.000000
vt 0.000000 0.000000
vt 1.000000 0.000000
vt 1.000000 1.000000
vt 0.000000 0.000000
vt 1.000000 0.000000
vt 1.000000 1.000000
vt 0.000000 0.000000
vt 1.000000 1.000000
vt 0.000000 0.000000
vt 1.000000 0.000000
vt 1.000000 1.000000
vt 1.000000 0.000000
vt 1.000000 0.000000
vt 1.000000 1.000000
vt 1.000000 0.000000
vt 1.000000 0.000000
vn 0.0000 1.0000 0.0000
vn -0.4496 -0.0000 0.8932
vn -0.8932 0.0000 -0.4496
vn 0.0000 -1.0000 -0.0000
vn 0.8932 -0.0000 0.4496
vn 0.4496 0.0000 -0.8932
s 1
f 1/1/1 2/2/1 3/3/1
f 2/4/2 4/5/2 5/6/2
f 6/7/3 7/8/3 4/9/3
f 8/10/4 4/5/4 7/11/4
f 3/12/5 5/13/5 8/14/5
f 1/1/6 8/15/6 7/11/6
f 1/1/1 6/16/1 2/17/1
f 2/4/2 6/16/2 4/9/2
f 6/7/3 1/18/3 7/11/3
f 8/10/4 5/13/4 4/9/4
f 3/12/5 2/2/5 5/6/5
f 1/1/6 3/19/6 8/14/6
o cube02_Cube.002
v 0.626178 0.823490 0.245059
v -0.128730 0.023490 0.509849
v 0.626178 0.023491 0.245059
v -0.128730 0.823490 0.509849
v -0.393520 0.023491 -0.245059
v -0.393520 0.823490 -0.245059
v 0.361388 0.023491 -0.509849
v 0.361388 0.823490 -0.509849
vt 0.000000 0.000000
vt 1.000000 0.000000
vt 1.000000 1.000000
vt 0.000000 0.000000
vt 1.000000 0.000000
vt 1.000000 1.000000
vt 0.000000 0.000000
vt 1.000000 0.000000
vt 1.000000 1.000000
vt 0.000000 0.000000
vt 1.000000 0.000000
vt 1.000000 1.000000
vt 0.000000 0.000000
vt 1.000000 0.000000
vt 1.000000 1.000000
vt 1.000000 0.000000
vt 1.000000 0.000000
vt 1.000000 0.000000
vt 1.000000 1.000000
vn 0.3310 -0.0000 0.9436
vn -0.9436 -0.0000 0.3310
vn -0.3310 0.0000 -0.9436
vn 0.9436 0.0000 -0.3310
vn 0.0000 -1.0000 -0.0000
vn 0.0000 1.0000 0.0000
s off
f 9/20/7 10/21/7 11/22/7
f 12/23/8 13/24/8 10/25/8
f 14/26/9 15/27/9 13/28/9
f 16/29/10 11/30/10 15/31/10
f 13/32/11 11/30/11 10/25/11
f 12/23/12 16/33/12 14/34/12
f 9/20/7 12/35/7 10/25/7
f 12/23/8 14/36/8 13/28/8
f 14/26/9 16/33/9 15/31/9
f 16/29/10 9/37/10 11/22/10
f 13/32/11 15/27/11 11/22/11
f 12/23/12 9/37/12 16/38/12
o cube02_Cube.001
v 1.870769 0.823490 -0.357705
v 1.180121 0.023490 0.046035
v 1.870769 0.023491 -0.357705
v 1.180121 0.823490 0.046035
v 0.776381 0.023491 -0.644613
v 0.776381 0.823490 -0.644613
v 1.467029 0.023491 -1.048353
v 1.467029 0.823490 -1.048353
vt 0.000000 0.000000
vt 1.000000 0.000000
vt 1.000000 1.000000
vt 0.000000 0.000000
vt 1.000000 0.000000
vt 1.000000 1.000000
vt 0.000000 0.000000
vt 1.000000 0.000000
vt 1.000000 1.000000
vt 0.000000 0.000000
vt 1.000000 0.000000
vt 1.000000 1.000000
vt 0.000000 0.000000
vt 1.000000 0.000000
vt 1.000000 1.000000
vt 1.000000 0.000000
vt 1.000000 0.000000
vt 1.000000 0.000000
vt 1.000000 1.000000
vn 0.5047 -0.0000 0.8633
vn -0.8633 0.0000 0.5047
vn -0.5047 0.0000 -0.8633
vn 0.8633 0.0000 -0.5047
vn 0.0000 -1.0000 -0.0000
vn 0.0000 1.0000 0.0000
s off
f 17/39/13 18/40/13 19/41/13
f 20/42/14 21/43/14 18/44/14
f 22/45/15 23/46/15 21/47/15
f 24/48/16 19/49/16 23/50/16
f 21/51/17 19/49/17 18/44/17
f 20/42/18 24/52/18 22/53/18
f 17/39/13 20/54/13 18/44/13
f 20/42/14 22/55/14 21/47/14
f 22/45/15 24/52/15 23/50/15
f 24/48/16 17/56/16 19/41/16
f 21/51/17 23/46/17 19/41/17
f 20/42/18 17/56/18 24/57/18
