# Blender v2.83.0 OBJ File: 'test.blend'
# www.blender.org
o Cube01_cube01_Cube.001
v -1.676219 1.263424 -0.805700
v -1.143877 1.263424 0.805701
v -0.604348 1.263424 -0.266171
v -2.215748 0.063424 0.266171
v -1.143877 0.063424 0.805700
v -2.215748 1.263424 0.266171
v -1.676219 0.063424 -0.805701
v -0.604348 0.063424 -0.266171
vt 0.250044 0.250043
vt 0.500000 0.000087
vt 0.500000 0.250043
vt 0.500000 0.999913
vt 0.250043 0.749957
vt 0.500000 0.749957
vt 0.000087 0.749957
vt 0.250043 0.500000
vt 0.500000 0.500000
vt 0.749957 0.500000
vt 0.250044 0.000087
vt 0.250043 0.999913
vt 0.000087 0.500000
vt 0.749957 0.749957
vn 0.0000 1.0000 0.0000
vn -0.4496 -0.0000 0.8932
vn -0.8932 0.0000 -0.4496
vn 0.0000 -1.0000 -0.0000
vn 0.8932 -0.0000 0.4496
vn 0.4496 0.0000 -0.8932
s 1
f 1/1/1 2/2/1 3/3/1
f 2/4/2 4/5/2 5/6/2
f 6/7/3 7/8/3 4/5/3
f 8/9/4 4/5/4 7/8/4
f 3/10/5 5/6/5 8/9/5
f 1/1/6 8/9/6 7/8/6
f 1/1/1 6/11/1 2/2/1
f 2/4/2 6/12/2 4/5/2
f 6/7/3 1/13/3 7/8/3
f 8/9/4 5/6/4 4/5/4
f 3/10/5 2/14/5 5/6/5
f 1/1/6 3/3/6 8/9/6
o Cube02_cube02_Cube.001
v 1.870769 0.823490 -0.357705
v 1.180121 0.023490 0.046035
v 1.870769 0.023491 -0.357705
v 1.180121 0.823490 0.046035
v 0.776381 0.023491 -0.644613
v 0.776381 0.823490 -0.644613
v 1.467029 0.023491 -1.048353
v 1.467029 0.823490 -1.048353
vt 0.999913 0.500000
vt 0.749957 0.749957
vt 0.749957 0.500000
vt 0.250043 0.500000
vt 0.500000 0.250043
vt 0.500000 0.500000
vt 0.999913 0.000087
vt 0.749957 0.250044
vt 0.749957 0.000087
vt 0.999913 0.250044
vt 0.000087 0.250043
vt 0.250044 0.250043
vt 0.999913 0.749957
vt 0.000087 0.500000
vn 0.5047 -0.0000 0.8633
vn -0.8633 -0.0000 0.5047
vn -0.5047 0.0000 -0.8633
vn 0.8633 0.0000 -0.5047
vn 0.0000 -1.0000 -0.0000
vn 0.0000 1.0000 0.0000
s off
f 9/15/7 10/16/7 11/17/7
f 12/18/8 13/19/8 10/20/8
f 14/21/9 15/22/9 13/23/9
f 16/24/10 11/17/10 15/22/10
f 13/19/11 11/17/11 10/20/11
f 12/18/12 16/25/12 14/26/12
f 9/15/7 12/27/7 10/16/7
f 12/18/8 14/26/8 13/19/8
f 14/21/9 16/24/9 15/22/9
f 16/24/10 9/15/10 11/17/10
f 13/19/11 15/22/11 11/17/11
f 12/18/12 9/28/12 16/25/12
o Sphere_Sphere.002
v 0.000000 1.160117 0.000000
v 0.000000 1.213402 -0.267878
v 0.189419 1.213402 -0.189419
v 0.000000 1.592239 -0.646716
v 0.350000 1.365142 -0.350000
v 0.000000 1.365142 -0.494975
v 0.000000 2.127995 -0.646716
v 0.494975 1.860117 -0.494975
v 0.000000 1.860117 -0.700000
v 0.000000 2.506833 -0.267878
v 0.350000 2.355092 -0.350000
v 0.000000 2.355092 -0.494975
v 0.457297 1.592239 -0.457297
v 0.457297 2.127995 -0.457297
v 0.000000 2.560117 0.000000
v 0.189419 2.506833 -0.189419
v 0.267878 1.213402 0.000000
v 0.646715 1.592239 0.000000
v 0.646715 2.127995 0.000000
v 0.267878 2.506833 0.000000
v 0.494975 1.365142 0.000000
v 0.700000 1.860117 0.000000
v 0.494975 2.355092 0.000000
v 0.457297 1.592239 0.457297
v 0.350000 2.355092 0.350000
v 0.457297 2.127995 0.457297
v 0.189419 2.506833 0.189418
v 0.189419 1.213402 0.189418
v 0.350000 1.365142 0.350000
v 0.494975 1.860117 0.494975
v 0.000000 1.213402 0.267878
v 0.000000 1.365142 0.494974
v 0.000000 1.860117 0.700000
v 0.000000 2.355092 0.494974
v 0.000000 1.592239 0.646715
v 0.000000 2.127995 0.646715
v 0.000000 2.506833 0.267878
v -0.494975 1.860117 0.494974
v -0.350000 2.355092 0.350000
v -0.189419 1.213402 0.189418
v -0.457297 1.592239 0.457297
v -0.457297 2.127995 0.457297
v -0.189419 2.506833 0.189418
v -0.350000 1.365142 0.350000
v -0.267878 1.213402 0.000000
v -0.646715 1.592239 0.000000
v -0.646715 2.127995 0.000000
v -0.267878 2.506833 0.000000
v -0.494975 1.365142 0.000000
v -0.700000 1.860117 0.000000
v -0.494975 2.355092 0.000000
v -0.457297 2.127995 -0.457297
v -0.189419 2.506833 -0.189419
v -0.189419 1.213402 -0.189419
v -0.350000 1.365142 -0.350000
v -0.494975 1.860117 -0.494975
v -0.350000 2.355092 -0.350000
v -0.457297 1.592239 -0.457297
vt 0.687500 0.000000
vt 0.750000 0.125000
vt 0.625000 0.125000
vt 0.750000 0.375000
vt 0.625000 0.250000
vt 0.750000 0.250000
vt 0.750000 0.625000
vt 0.625000 0.500000
vt 0.750000 0.500000
vt 0.750000 0.875000
vt 0.625000 0.750000
vt 0.750000 0.750000
vt 0.625000 0.375000
vt 0.625000 0.625000
vt 0.687500 1.000000
vt 0.625000 0.875000
vt 0.500000 0.125000
vt 0.500000 0.375000
vt 0.500000 0.625000
vt 0.562500 1.000000
vt 0.500000 0.875000
vt 0.562500 0.000000
vt 0.500000 0.250000
vt 0.500000 0.500000
vt 0.500000 0.750000
vt 0.375000 0.375000
vt 0.375000 0.750000
vt 0.375000 0.625000
vt 0.437500 1.000000
vt 0.375000 0.875000
vt 0.437500 0.000000
vt 0.375000 0.125000
vt 0.375000 0.250000
vt 0.375000 0.500000
vt 0.312500 0.000000
vt 0.250000 0.125000
vt 0.250000 0.250000
vt 0.250000 0.500000
vt 0.250000 0.750000
vt 0.250000 0.375000
vt 0.250000 0.625000
vt 0.312500 1.000000
vt 0.250000 0.875000
vt 0.125000 0.500000
vt 0.125000 0.750000
vt 0.125000 0.125000
vt 0.125000 0.375000
vt 0.125000 0.625000
vt 0.187500 1.000000
vt 0.125000 0.875000
vt 0.187500 0.000000
vt 0.125000 0.250000
vt 0.000000 0.125000
vt 0.000000 0.375000
vt 0.000000 0.625000
vt 0.062500 1.000000
vt 0.000000 0.875000
vt 0.062500 0.000000
vt 0.000000 0.250000
vt 0.000000 0.500000
vt 0.000000 0.750000
vt 1.000000 0.750000
vt 0.875000 0.625000
vt 1.000000 0.625000
vt 1.000000 0.875000
vt 0.937500 1.000000
vt 0.875000 0.875000
vt 0.937500 0.000000
vt 1.000000 0.125000
vt 0.875000 0.125000
vt 1.000000 0.375000
vt 0.875000 0.250000
vt 1.000000 0.250000
vt 0.875000 0.500000
vt 1.000000 0.500000
vt 0.875000 0.750000
vt 0.875000 0.375000
vt 0.812500 0.000000
vt 0.812500 1.000000
vn 0.0805 -0.9776 -0.1945
vn 0.3256 -0.5253 -0.7862
vn 0.3764 0.1807 -0.9087
vn 0.2243 0.8103 -0.5414
vn 0.2243 -0.8103 -0.5414
vn 0.3764 -0.1807 -0.9087
vn 0.3256 0.5253 -0.7862
vn 0.0805 0.9776 -0.1945
vn 0.5414 -0.8103 -0.2243
vn 0.9087 -0.1807 -0.3764
vn 0.7862 0.5253 -0.3256
vn 0.1945 0.9776 -0.0805
vn 0.1945 -0.9776 -0.0805
vn 0.7862 -0.5253 -0.3256
vn 0.9087 0.1807 -0.3764
vn 0.5414 0.8103 -0.2243
vn 0.9087 -0.1807 0.3764
vn 0.7862 0.5253 0.3256
vn 0.1945 0.9776 0.0805
vn 0.1945 -0.9776 0.0805
vn 0.7862 -0.5253 0.3256
vn 0.9087 0.1807 0.3764
vn 0.5414 0.8103 0.2243
vn 0.5414 -0.8103 0.2243
vn 0.0805 -0.9776 0.1945
vn 0.3256 -0.5253 0.7862
vn 0.3764 0.1807 0.9087
vn 0.2243 0.8103 0.5414
vn 0.2243 -0.8103 0.5414
vn 0.3764 -0.1807 0.9087
vn 0.3256 0.5253 0.7862
vn 0.0805 0.9776 0.1945
vn -0.3764 0.1807 0.9087
vn -0.2243 0.8103 0.5414
vn -0.2243 -0.8103 0.5414
vn -0.3764 -0.1807 0.9087
vn -0.3256 0.5253 0.7862
vn -0.0805 0.9776 0.1945
vn -0.0805 -0.9776 0.1945
vn -0.3256 -0.5253 0.7862
vn -0.5414 -0.8103 0.2243
vn -0.9087 -0.1807 0.3764
vn -0.7862 0.5253 0.3256
vn -0.1945 0.9776 0.0805
vn -0.1945 -0.9776 0.0805
vn -0.7862 -0.5253 0.3256
vn -0.9087 0.1807 0.3764
vn -0.5414 0.8103 0.2243
vn -0.7862 0.5253 -0.3256
vn -0.1945 0.9776 -0.0805
vn -0.1945 -0.9776 -0.0805
vn -0.7862 -0.5253 -0.3256
vn -0.9087 0.1807 -0.3764
vn -0.5414 0.8103 -0.2243
vn -0.5414 -0.8103 -0.2243
vn -0.9087 -0.1807 -0.3764
vn -0.0805 -0.9776 -0.1945
vn -0.3256 -0.5253 -0.7862
vn -0.3764 0.1807 -0.9087
vn -0.2243 0.8103 -0.5414
vn -0.2243 -0.8103 -0.5414
vn -0.3764 -0.1807 -0.9087
vn -0.3256 0.5253 -0.7862
vn -0.0805 0.9776 -0.1945
s off
f 17/29/13 18/30/13 19/31/13
f 20/32/14 21/33/14 22/34/14
f 23/35/15 24/36/15 25/37/15
f 26/38/16 27/39/16 28/40/16
f 22/34/17 19/31/17 18/30/17
f 25/37/18 29/41/18 20/32/18
f 28/40/19 30/42/19 23/35/19
f 26/38/20 31/43/20 32/44/20
f 21/33/21 33/45/21 19/31/21
f 24/36/22 34/46/22 29/41/22
f 27/39/23 35/47/23 30/42/23
f 32/44/24 31/48/24 36/49/24
f 17/50/25 19/31/25 33/45/25
f 29/41/26 37/51/26 21/33/26
f 24/36/27 35/47/27 38/52/27
f 32/44/28 39/53/28 27/39/28
f 38/52/29 40/54/29 34/46/29
f 35/47/30 41/55/30 42/56/30
f 36/49/31 31/57/31 43/58/31
f 17/59/32 33/45/32 44/60/32
f 37/51/33 40/54/33 45/61/33
f 35/47/34 46/62/34 38/52/34
f 36/49/35 41/55/35 39/53/35
f 37/51/36 44/60/36 33/45/36
f 17/63/37 44/60/37 47/64/37
f 40/54/38 48/65/38 45/61/38
f 42/56/39 49/66/39 46/62/39
f 43/58/40 50/67/40 41/55/40
f 44/60/41 48/65/41 47/64/41
f 46/62/42 51/68/42 40/54/42
f 41/55/43 52/69/43 42/56/43
f 43/58/44 31/70/44 53/71/44
f 52/69/45 54/72/45 49/66/45
f 53/71/46 55/73/46 50/67/46
f 48/65/47 56/74/47 47/64/47
f 49/66/48 57/75/48 51/68/48
f 50/67/49 58/76/49 52/69/49
f 53/71/50 31/77/50 59/78/50
f 17/79/51 47/64/51 56/74/51
f 51/68/52 60/80/52 48/65/52
f 60/80/53 61/81/53 56/74/53
f 54/72/54 62/82/54 57/75/54
f 55/73/55 63/83/55 58/76/55
f 59/78/56 31/84/56 64/85/56
f 17/86/57 56/74/57 61/81/57
f 57/75/58 65/87/58 60/80/58
f 58/76/59 66/88/59 54/72/59
f 59/78/60 67/89/60 55/73/60
f 67/90/61 68/91/61 63/92/61
f 64/93/62 31/94/62 69/95/62
f 17/96/63 61/97/63 70/98/63
f 62/99/64 71/100/64 65/101/64
f 63/92/65 72/102/65 66/103/65
f 64/93/66 73/104/66 67/90/66
f 65/101/67 70/98/67 61/97/67
f 66/103/68 74/105/68 62/99/68
f 17/106/69 70/98/69 18/30/69
f 74/105/70 22/34/70 71/100/70
f 68/91/71 25/37/71 72/102/71
f 69/95/72 28/40/72 73/104/72
f 71/100/73 18/30/73 70/98/73
f 72/102/74 20/32/74 74/105/74
f 73/104/75 23/35/75 68/91/75
f 69/95/76 31/107/76 26/38/76
f 20/32/14 29/41/14 21/33/14
f 23/35/15 30/42/15 24/36/15
f 26/38/16 32/44/16 27/39/16
f 22/34/17 21/33/17 19/31/17
f 25/37/18 24/36/18 29/41/18
f 28/40/19 27/39/19 30/42/19
f 21/33/21 37/51/21 33/45/21
f 24/36/22 38/52/22 34/46/22
f 27/39/23 39/53/23 35/47/23
f 29/41/26 34/46/26 37/51/26
f 24/36/27 30/42/27 35/47/27
f 32/44/28 36/49/28 39/53/28
f 38/52/29 46/62/29 40/54/29
f 35/47/30 39/53/30 41/55/30
f 37/51/33 34/46/33 40/54/33
f 35/47/34 42/56/34 46/62/34
f 36/49/35 43/58/35 41/55/35
f 37/51/36 45/61/36 44/60/36
f 40/54/38 51/68/38 48/65/38
f 42/56/39 52/69/39 49/66/39
f 43/58/40 53/71/40 50/67/40
f 44/60/41 45/61/41 48/65/41
f 46/62/42 49/66/42 51/68/42
f 41/55/43 50/67/43 52/69/43
f 52/69/45 58/76/45 54/72/45
f 53/71/46 59/78/46 55/73/46
f 48/65/47 60/80/47 56/74/47
f 49/66/48 54/72/48 57/75/48
f 50/67/49 55/73/49 58/76/49
f 51/68/52 57/75/52 60/80/52
f 60/80/53 65/87/53 61/81/53
f 54/72/54 66/88/54 62/82/54
f 55/73/55 67/89/55 63/83/55
f 57/75/58 62/82/58 65/87/58
f 58/76/59 63/83/59 66/88/59
f 59/78/60 64/85/60 67/89/60
f 67/90/61 73/104/61 68/91/61
f 62/99/64 74/105/64 71/100/64
f 63/92/65 68/91/65 72/102/65
f 64/93/66 69/95/66 73/104/66
f 65/101/67 71/100/67 70/98/67
f 66/103/68 72/102/68 74/105/68
f 74/105/70 20/32/70 22/34/70
f 68/91/71 23/35/71 25/37/71
f 69/95/72 26/38/72 28/40/72
f 71/100/73 22/34/73 18/30/73
f 72/102/74 25/37/74 20/32/74
f 73/104/75 28/40/75 23/35/75
